<mxfile host="app.diagrams.net" modified="2023-10-07T07:05:48.167Z" agent="Mozilla/5.0 (Windows NT 10.0; Win64; x64) AppleWebKit/537.36 (KHTML, like Gecko) Chrome/117.0.0.0 Safari/537.36" etag="lG0DBId2UZbpMdouexmp" version="21.7.5" type="device">
  <diagram name="Page-1" id="I9AM9L3e_nEDn7vadmaS">
    <mxGraphModel dx="1290" dy="617" grid="1" gridSize="10" guides="1" tooltips="1" connect="1" arrows="1" fold="1" page="1" pageScale="1" pageWidth="827" pageHeight="1169" math="0" shadow="0">
      <root>
        <mxCell id="0" />
        <mxCell id="1" parent="0" />
        <mxCell id="qv5WQ0S7pS-fZdJ3RePI-1" value="Start" style="ellipse;whiteSpace=wrap;html=1;" vertex="1" parent="1">
          <mxGeometry x="30" y="10" width="90" height="50" as="geometry" />
        </mxCell>
        <mxCell id="qv5WQ0S7pS-fZdJ3RePI-2" value="Registration &amp;amp; Login" style="rounded=0;whiteSpace=wrap;html=1;" vertex="1" parent="1">
          <mxGeometry x="260" y="80" width="120" height="30" as="geometry" />
        </mxCell>
        <mxCell id="qv5WQ0S7pS-fZdJ3RePI-3" value="Furniture Categories" style="rounded=0;whiteSpace=wrap;html=1;" vertex="1" parent="1">
          <mxGeometry x="470" y="150.5" width="120" height="40" as="geometry" />
        </mxCell>
        <mxCell id="qv5WQ0S7pS-fZdJ3RePI-4" value="Home Page" style="rounded=0;whiteSpace=wrap;html=1;" vertex="1" parent="1">
          <mxGeometry x="280" y="20" width="80" height="30" as="geometry" />
        </mxCell>
        <mxCell id="qv5WQ0S7pS-fZdJ3RePI-6" value="If User exists" style="html=1;whiteSpace=wrap;aspect=fixed;shape=isoRectangle;" vertex="1" parent="1">
          <mxGeometry x="269.16999999999996" y="140" width="101.66" height="61" as="geometry" />
        </mxCell>
        <mxCell id="qv5WQ0S7pS-fZdJ3RePI-7" value="User Selects Category" style="rounded=0;whiteSpace=wrap;html=1;" vertex="1" parent="1">
          <mxGeometry x="460" y="220" width="130" height="30" as="geometry" />
        </mxCell>
        <mxCell id="qv5WQ0S7pS-fZdJ3RePI-8" value="View in AR" style="rounded=0;whiteSpace=wrap;html=1;" vertex="1" parent="1">
          <mxGeometry x="320" y="260" width="90" height="30" as="geometry" />
        </mxCell>
        <mxCell id="qv5WQ0S7pS-fZdJ3RePI-9" value="Trigger Camera" style="rounded=0;whiteSpace=wrap;html=1;" vertex="1" parent="1">
          <mxGeometry x="160" y="260" width="100" height="30" as="geometry" />
        </mxCell>
        <mxCell id="qv5WQ0S7pS-fZdJ3RePI-10" value="Opens Camera" style="rounded=0;whiteSpace=wrap;html=1;" vertex="1" parent="1">
          <mxGeometry x="30" y="260" width="90" height="30" as="geometry" />
        </mxCell>
        <mxCell id="qv5WQ0S7pS-fZdJ3RePI-11" value="User Places Product" style="rounded=0;whiteSpace=wrap;html=1;" vertex="1" parent="1">
          <mxGeometry x="40" y="330" width="130" height="30" as="geometry" />
        </mxCell>
        <mxCell id="qv5WQ0S7pS-fZdJ3RePI-13" value="Product" style="html=1;whiteSpace=wrap;aspect=fixed;shape=isoRectangle;" vertex="1" parent="1">
          <mxGeometry x="488.34000000000003" y="290" width="83.33" height="50" as="geometry" />
        </mxCell>
        <mxCell id="qv5WQ0S7pS-fZdJ3RePI-14" value="Detailed Prdouct Information" style="rounded=0;whiteSpace=wrap;html=1;" vertex="1" parent="1">
          <mxGeometry x="275" y="325" width="165" height="25" as="geometry" />
        </mxCell>
        <mxCell id="qv5WQ0S7pS-fZdJ3RePI-16" value="Product / Item" style="rounded=0;whiteSpace=wrap;html=1;" vertex="1" parent="1">
          <mxGeometry x="476.66" y="400" width="90" height="30" as="geometry" />
        </mxCell>
        <mxCell id="qv5WQ0S7pS-fZdJ3RePI-17" value="Add to cart" style="html=1;whiteSpace=wrap;aspect=fixed;shape=isoRectangle;" vertex="1" parent="1">
          <mxGeometry x="475" y="470" width="100" height="60" as="geometry" />
        </mxCell>
        <mxCell id="qv5WQ0S7pS-fZdJ3RePI-18" value="Continue Shopping" style="rounded=0;whiteSpace=wrap;html=1;" vertex="1" parent="1">
          <mxGeometry x="350" y="540" width="110" height="40" as="geometry" />
        </mxCell>
        <mxCell id="qv5WQ0S7pS-fZdJ3RePI-19" value="Checkout" style="rounded=0;whiteSpace=wrap;html=1;" vertex="1" parent="1">
          <mxGeometry x="610" y="540" width="90" height="30" as="geometry" />
        </mxCell>
        <mxCell id="qv5WQ0S7pS-fZdJ3RePI-20" value="User" style="html=1;whiteSpace=wrap;aspect=fixed;shape=isoRectangle;" vertex="1" parent="1">
          <mxGeometry x="616.67" y="610" width="83.33" height="50" as="geometry" />
        </mxCell>
        <mxCell id="qv5WQ0S7pS-fZdJ3RePI-21" value="Confirmation" style="rounded=0;whiteSpace=wrap;html=1;" vertex="1" parent="1">
          <mxGeometry x="340" y="710" width="100" height="40" as="geometry" />
        </mxCell>
        <mxCell id="qv5WQ0S7pS-fZdJ3RePI-22" value="Complete Purchase" style="rounded=0;whiteSpace=wrap;html=1;" vertex="1" parent="1">
          <mxGeometry x="593.34" y="710" width="130" height="30" as="geometry" />
        </mxCell>
        <mxCell id="qv5WQ0S7pS-fZdJ3RePI-23" value="Stop" style="rounded=1;whiteSpace=wrap;html=1;" vertex="1" parent="1">
          <mxGeometry x="354" y="820" width="60" height="30" as="geometry" />
        </mxCell>
        <mxCell id="qv5WQ0S7pS-fZdJ3RePI-24" value="Database 1" style="strokeWidth=2;html=1;shape=mxgraph.flowchart.database;whiteSpace=wrap;" vertex="1" parent="1">
          <mxGeometry x="820" y="720" width="90" height="100" as="geometry" />
        </mxCell>
        <mxCell id="qv5WQ0S7pS-fZdJ3RePI-25" value="" style="endArrow=classic;html=1;rounded=0;exitX=1;exitY=0.5;exitDx=0;exitDy=0;entryX=0;entryY=0.5;entryDx=0;entryDy=0;" edge="1" parent="1" source="qv5WQ0S7pS-fZdJ3RePI-1" target="qv5WQ0S7pS-fZdJ3RePI-4">
          <mxGeometry width="50" height="50" relative="1" as="geometry">
            <mxPoint x="160" y="60" as="sourcePoint" />
            <mxPoint x="220" y="20" as="targetPoint" />
          </mxGeometry>
        </mxCell>
        <mxCell id="qv5WQ0S7pS-fZdJ3RePI-26" value="" style="endArrow=classic;html=1;rounded=0;exitX=0.5;exitY=1;exitDx=0;exitDy=0;" edge="1" parent="1" source="qv5WQ0S7pS-fZdJ3RePI-4" target="qv5WQ0S7pS-fZdJ3RePI-2">
          <mxGeometry width="50" height="50" relative="1" as="geometry">
            <mxPoint x="380" y="70" as="sourcePoint" />
            <mxPoint x="430" y="20" as="targetPoint" />
          </mxGeometry>
        </mxCell>
        <mxCell id="qv5WQ0S7pS-fZdJ3RePI-27" value="" style="endArrow=classic;html=1;rounded=0;exitX=0.5;exitY=1;exitDx=0;exitDy=0;entryX=0.496;entryY=0.072;entryDx=0;entryDy=0;entryPerimeter=0;" edge="1" parent="1" source="qv5WQ0S7pS-fZdJ3RePI-2" target="qv5WQ0S7pS-fZdJ3RePI-6">
          <mxGeometry width="50" height="50" relative="1" as="geometry">
            <mxPoint x="330" y="120" as="sourcePoint" />
            <mxPoint x="430" y="110" as="targetPoint" />
          </mxGeometry>
        </mxCell>
        <mxCell id="qv5WQ0S7pS-fZdJ3RePI-28" value="" style="endArrow=classic;html=1;rounded=0;exitX=1.008;exitY=0.479;exitDx=0;exitDy=0;exitPerimeter=0;entryX=0;entryY=0.5;entryDx=0;entryDy=0;" edge="1" parent="1" source="qv5WQ0S7pS-fZdJ3RePI-6" target="qv5WQ0S7pS-fZdJ3RePI-3">
          <mxGeometry width="50" height="50" relative="1" as="geometry">
            <mxPoint x="390" y="190" as="sourcePoint" />
            <mxPoint x="440" y="140" as="targetPoint" />
          </mxGeometry>
        </mxCell>
        <mxCell id="qv5WQ0S7pS-fZdJ3RePI-31" value="YES" style="edgeLabel;html=1;align=center;verticalAlign=middle;resizable=0;points=[];" vertex="1" connectable="0" parent="qv5WQ0S7pS-fZdJ3RePI-28">
          <mxGeometry x="0.0202" y="-1" relative="1" as="geometry">
            <mxPoint as="offset" />
          </mxGeometry>
        </mxCell>
        <mxCell id="qv5WQ0S7pS-fZdJ3RePI-29" value="" style="edgeStyle=segmentEdgeStyle;endArrow=classic;html=1;curved=0;rounded=0;endSize=8;startSize=8;exitX=-0.031;exitY=0.452;exitDx=0;exitDy=0;exitPerimeter=0;" edge="1" parent="1" source="qv5WQ0S7pS-fZdJ3RePI-6">
          <mxGeometry width="50" height="50" relative="1" as="geometry">
            <mxPoint x="275.00328000000013" y="150.50199999999995" as="sourcePoint" />
            <mxPoint x="255.02" y="100.49" as="targetPoint" />
            <Array as="points">
              <mxPoint x="195" y="168" />
              <mxPoint x="195" y="101" />
            </Array>
          </mxGeometry>
        </mxCell>
        <mxCell id="qv5WQ0S7pS-fZdJ3RePI-30" value="No" style="edgeLabel;html=1;align=center;verticalAlign=middle;resizable=0;points=[];" vertex="1" connectable="0" parent="qv5WQ0S7pS-fZdJ3RePI-29">
          <mxGeometry x="0.056" y="-1" relative="1" as="geometry">
            <mxPoint as="offset" />
          </mxGeometry>
        </mxCell>
        <mxCell id="qv5WQ0S7pS-fZdJ3RePI-32" value="" style="endArrow=classic;html=1;rounded=0;exitX=0.5;exitY=1;exitDx=0;exitDy=0;entryX=0.557;entryY=0.093;entryDx=0;entryDy=0;entryPerimeter=0;" edge="1" parent="1" source="qv5WQ0S7pS-fZdJ3RePI-3" target="qv5WQ0S7pS-fZdJ3RePI-7">
          <mxGeometry width="50" height="50" relative="1" as="geometry">
            <mxPoint x="660" y="260" as="sourcePoint" />
            <mxPoint x="710" y="210" as="targetPoint" />
          </mxGeometry>
        </mxCell>
        <mxCell id="qv5WQ0S7pS-fZdJ3RePI-33" value="" style="endArrow=classic;html=1;rounded=0;exitX=0.569;exitY=1.08;exitDx=0;exitDy=0;exitPerimeter=0;" edge="1" parent="1" source="qv5WQ0S7pS-fZdJ3RePI-7" target="qv5WQ0S7pS-fZdJ3RePI-13">
          <mxGeometry width="50" height="50" relative="1" as="geometry">
            <mxPoint x="590" y="290" as="sourcePoint" />
            <mxPoint x="640" y="240" as="targetPoint" />
          </mxGeometry>
        </mxCell>
        <mxCell id="qv5WQ0S7pS-fZdJ3RePI-34" value="" style="edgeStyle=elbowEdgeStyle;elbow=horizontal;endArrow=classic;html=1;curved=0;rounded=0;endSize=8;startSize=8;exitX=0.03;exitY=0.368;exitDx=0;exitDy=0;exitPerimeter=0;entryX=1;entryY=0.75;entryDx=0;entryDy=0;" edge="1" parent="1" source="qv5WQ0S7pS-fZdJ3RePI-13" target="qv5WQ0S7pS-fZdJ3RePI-8">
          <mxGeometry width="50" height="50" relative="1" as="geometry">
            <mxPoint x="390" y="230" as="sourcePoint" />
            <mxPoint x="430" y="260" as="targetPoint" />
          </mxGeometry>
        </mxCell>
        <mxCell id="qv5WQ0S7pS-fZdJ3RePI-35" value="" style="endArrow=classic;html=1;rounded=0;exitX=0.442;exitY=0.992;exitDx=0;exitDy=0;exitPerimeter=0;entryX=1;entryY=0.5;entryDx=0;entryDy=0;" edge="1" parent="1" source="qv5WQ0S7pS-fZdJ3RePI-13" target="qv5WQ0S7pS-fZdJ3RePI-14">
          <mxGeometry width="50" height="50" relative="1" as="geometry">
            <mxPoint x="280" y="440" as="sourcePoint" />
            <mxPoint x="330" y="390" as="targetPoint" />
          </mxGeometry>
        </mxCell>
        <mxCell id="qv5WQ0S7pS-fZdJ3RePI-36" value="" style="endArrow=classic;html=1;rounded=0;exitX=0;exitY=0.5;exitDx=0;exitDy=0;entryX=1;entryY=0.5;entryDx=0;entryDy=0;" edge="1" parent="1" source="qv5WQ0S7pS-fZdJ3RePI-8" target="qv5WQ0S7pS-fZdJ3RePI-9">
          <mxGeometry width="50" height="50" relative="1" as="geometry">
            <mxPoint x="210" y="360" as="sourcePoint" />
            <mxPoint x="260" y="310" as="targetPoint" />
          </mxGeometry>
        </mxCell>
        <mxCell id="qv5WQ0S7pS-fZdJ3RePI-37" value="" style="endArrow=classic;html=1;rounded=0;exitX=0;exitY=0.5;exitDx=0;exitDy=0;entryX=1;entryY=0.5;entryDx=0;entryDy=0;" edge="1" parent="1" source="qv5WQ0S7pS-fZdJ3RePI-9" target="qv5WQ0S7pS-fZdJ3RePI-10">
          <mxGeometry width="50" height="50" relative="1" as="geometry">
            <mxPoint x="160" y="430" as="sourcePoint" />
            <mxPoint x="210" y="380" as="targetPoint" />
          </mxGeometry>
        </mxCell>
        <mxCell id="qv5WQ0S7pS-fZdJ3RePI-38" value="" style="endArrow=classic;html=1;rounded=0;exitX=0.587;exitY=1.08;exitDx=0;exitDy=0;exitPerimeter=0;" edge="1" parent="1" source="qv5WQ0S7pS-fZdJ3RePI-10" target="qv5WQ0S7pS-fZdJ3RePI-11">
          <mxGeometry width="50" height="50" relative="1" as="geometry">
            <mxPoint x="90" y="300" as="sourcePoint" />
            <mxPoint x="130" y="380" as="targetPoint" />
          </mxGeometry>
        </mxCell>
        <mxCell id="qv5WQ0S7pS-fZdJ3RePI-39" value="" style="endArrow=classic;html=1;rounded=0;exitX=0.548;exitY=1.008;exitDx=0;exitDy=0;exitPerimeter=0;entryX=0.637;entryY=0.013;entryDx=0;entryDy=0;entryPerimeter=0;" edge="1" parent="1" source="qv5WQ0S7pS-fZdJ3RePI-13" target="qv5WQ0S7pS-fZdJ3RePI-16">
          <mxGeometry width="50" height="50" relative="1" as="geometry">
            <mxPoint x="593.34" y="390" as="sourcePoint" />
            <mxPoint x="570" y="370" as="targetPoint" />
          </mxGeometry>
        </mxCell>
        <mxCell id="qv5WQ0S7pS-fZdJ3RePI-40" value="" style="endArrow=classic;html=1;rounded=0;exitX=0.619;exitY=1.08;exitDx=0;exitDy=0;exitPerimeter=0;" edge="1" parent="1" source="qv5WQ0S7pS-fZdJ3RePI-16" target="qv5WQ0S7pS-fZdJ3RePI-17">
          <mxGeometry width="50" height="50" relative="1" as="geometry">
            <mxPoint x="390" y="480" as="sourcePoint" />
            <mxPoint x="440" y="430" as="targetPoint" />
          </mxGeometry>
        </mxCell>
        <mxCell id="qv5WQ0S7pS-fZdJ3RePI-42" value="" style="edgeStyle=segmentEdgeStyle;endArrow=classic;html=1;curved=0;rounded=0;endSize=8;startSize=8;exitX=0.006;exitY=0.48;exitDx=0;exitDy=0;exitPerimeter=0;entryX=0.436;entryY=0.05;entryDx=0;entryDy=0;entryPerimeter=0;" edge="1" parent="1" source="qv5WQ0S7pS-fZdJ3RePI-17" target="qv5WQ0S7pS-fZdJ3RePI-18">
          <mxGeometry width="50" height="50" relative="1" as="geometry">
            <mxPoint x="260" y="490" as="sourcePoint" />
            <mxPoint x="310" y="440" as="targetPoint" />
          </mxGeometry>
        </mxCell>
        <mxCell id="qv5WQ0S7pS-fZdJ3RePI-43" value="" style="edgeStyle=segmentEdgeStyle;endArrow=classic;html=1;curved=0;rounded=0;endSize=8;startSize=8;exitX=0.99;exitY=0.493;exitDx=0;exitDy=0;exitPerimeter=0;entryX=0.436;entryY=0.05;entryDx=0;entryDy=0;entryPerimeter=0;" edge="1" parent="1" source="qv5WQ0S7pS-fZdJ3RePI-17">
          <mxGeometry width="50" height="50" relative="1" as="geometry">
            <mxPoint x="708.0400000000001" y="487" as="sourcePoint" />
            <mxPoint x="630.0400000000001" y="530" as="targetPoint" />
          </mxGeometry>
        </mxCell>
        <mxCell id="qv5WQ0S7pS-fZdJ3RePI-44" value="" style="endArrow=classic;html=1;rounded=0;exitX=0.5;exitY=1;exitDx=0;exitDy=0;entryX=0.515;entryY=0.08;entryDx=0;entryDy=0;entryPerimeter=0;" edge="1" parent="1" source="qv5WQ0S7pS-fZdJ3RePI-19" target="qv5WQ0S7pS-fZdJ3RePI-20">
          <mxGeometry width="50" height="50" relative="1" as="geometry">
            <mxPoint x="525" y="635" as="sourcePoint" />
            <mxPoint x="590" y="580" as="targetPoint" />
          </mxGeometry>
        </mxCell>
        <mxCell id="qv5WQ0S7pS-fZdJ3RePI-45" value="" style="endArrow=classic;html=1;rounded=0;exitX=0.534;exitY=0.992;exitDx=0;exitDy=0;exitPerimeter=0;" edge="1" parent="1" source="qv5WQ0S7pS-fZdJ3RePI-20" target="qv5WQ0S7pS-fZdJ3RePI-22">
          <mxGeometry width="50" height="50" relative="1" as="geometry">
            <mxPoint x="470" y="650" as="sourcePoint" />
            <mxPoint x="520" y="600" as="targetPoint" />
          </mxGeometry>
        </mxCell>
        <mxCell id="qv5WQ0S7pS-fZdJ3RePI-49" value="IF FOUND" style="edgeLabel;html=1;align=center;verticalAlign=middle;resizable=0;points=[];" vertex="1" connectable="0" parent="qv5WQ0S7pS-fZdJ3RePI-45">
          <mxGeometry x="-0.3374" y="2" relative="1" as="geometry">
            <mxPoint as="offset" />
          </mxGeometry>
        </mxCell>
        <mxCell id="qv5WQ0S7pS-fZdJ3RePI-46" value="" style="endArrow=classic;html=1;rounded=0;exitX=0;exitY=0;exitDx=0;exitDy=0;entryX=1;entryY=0;entryDx=0;entryDy=0;" edge="1" parent="1" source="qv5WQ0S7pS-fZdJ3RePI-22" target="qv5WQ0S7pS-fZdJ3RePI-21">
          <mxGeometry width="50" height="50" relative="1" as="geometry">
            <mxPoint x="470" y="710" as="sourcePoint" />
            <mxPoint x="520" y="660" as="targetPoint" />
          </mxGeometry>
        </mxCell>
        <mxCell id="qv5WQ0S7pS-fZdJ3RePI-47" value="" style="endArrow=classic;html=1;rounded=0;exitX=1;exitY=1;exitDx=0;exitDy=0;entryX=-0.004;entryY=0.316;entryDx=0;entryDy=0;entryPerimeter=0;" edge="1" parent="1" source="qv5WQ0S7pS-fZdJ3RePI-21" target="qv5WQ0S7pS-fZdJ3RePI-24">
          <mxGeometry width="50" height="50" relative="1" as="geometry">
            <mxPoint x="505" y="795" as="sourcePoint" />
            <mxPoint x="740" y="750" as="targetPoint" />
          </mxGeometry>
        </mxCell>
        <mxCell id="qv5WQ0S7pS-fZdJ3RePI-48" value="" style="endArrow=classic;html=1;rounded=0;exitX=0.5;exitY=1;exitDx=0;exitDy=0;entryX=0.64;entryY=0.093;entryDx=0;entryDy=0;entryPerimeter=0;" edge="1" parent="1" source="qv5WQ0S7pS-fZdJ3RePI-21" target="qv5WQ0S7pS-fZdJ3RePI-23">
          <mxGeometry width="50" height="50" relative="1" as="geometry">
            <mxPoint x="414" y="840" as="sourcePoint" />
            <mxPoint x="464" y="790" as="targetPoint" />
          </mxGeometry>
        </mxCell>
        <mxCell id="qv5WQ0S7pS-fZdJ3RePI-50" value="" style="edgeStyle=segmentEdgeStyle;endArrow=classic;html=1;curved=0;rounded=0;endSize=8;startSize=8;exitX=0.006;exitY=0.464;exitDx=0;exitDy=0;exitPerimeter=0;entryX=0;entryY=0.25;entryDx=0;entryDy=0;" edge="1" parent="1" source="qv5WQ0S7pS-fZdJ3RePI-20" target="qv5WQ0S7pS-fZdJ3RePI-2">
          <mxGeometry width="50" height="50" relative="1" as="geometry">
            <mxPoint x="269.17" y="620" as="sourcePoint" />
            <mxPoint x="319.17" y="570" as="targetPoint" />
            <Array as="points">
              <mxPoint x="10" y="633" />
              <mxPoint x="10" y="80" />
              <mxPoint x="220" y="80" />
              <mxPoint x="220" y="88" />
            </Array>
          </mxGeometry>
        </mxCell>
        <mxCell id="qv5WQ0S7pS-fZdJ3RePI-51" value="" style="edgeStyle=segmentEdgeStyle;endArrow=classic;html=1;curved=0;rounded=0;endSize=8;startSize=8;exitX=1;exitY=0.5;exitDx=0;exitDy=0;" edge="1" parent="1" source="qv5WQ0S7pS-fZdJ3RePI-2" target="qv5WQ0S7pS-fZdJ3RePI-24">
          <mxGeometry width="50" height="50" relative="1" as="geometry">
            <mxPoint x="690" y="325" as="sourcePoint" />
            <mxPoint x="740" y="275" as="targetPoint" />
          </mxGeometry>
        </mxCell>
        <mxCell id="qv5WQ0S7pS-fZdJ3RePI-52" value="" style="edgeStyle=segmentEdgeStyle;endArrow=classic;html=1;curved=0;rounded=0;endSize=8;startSize=8;exitX=1;exitY=0.5;exitDx=0;exitDy=0;entryX=0.218;entryY=0.012;entryDx=0;entryDy=0;entryPerimeter=0;" edge="1" parent="1" source="qv5WQ0S7pS-fZdJ3RePI-3" target="qv5WQ0S7pS-fZdJ3RePI-24">
          <mxGeometry width="50" height="50" relative="1" as="geometry">
            <mxPoint x="460" y="187.5" as="sourcePoint" />
            <mxPoint x="945" y="812.5" as="targetPoint" />
          </mxGeometry>
        </mxCell>
        <mxCell id="qv5WQ0S7pS-fZdJ3RePI-53" value="" style="edgeStyle=segmentEdgeStyle;endArrow=classic;html=1;curved=0;rounded=0;endSize=8;startSize=8;exitX=1;exitY=0.5;exitDx=0;exitDy=0;entryX=0.804;entryY=0.036;entryDx=0;entryDy=0;entryPerimeter=0;" edge="1" parent="1" target="qv5WQ0S7pS-fZdJ3RePI-24">
          <mxGeometry width="50" height="50" relative="1" as="geometry">
            <mxPoint x="566.66" y="412.5" as="sourcePoint" />
            <mxPoint x="1051.66" y="1037.5" as="targetPoint" />
          </mxGeometry>
        </mxCell>
      </root>
    </mxGraphModel>
  </diagram>
</mxfile>
